<svg width="22" height="22" viewBox="0 0 22 22" fill="none" xmlns="http://www.w3.org/2000/svg">
<path d="M1.281 20.719C1.68727 21.1254 2.16962 21.4477 2.70049 21.6677C3.23137 21.8876 3.80037 22.0008 4.375 22.0008M1.281 20.719C2.10147 21.5395 3.21468 22.0008 4.375 22.0008M1.281 20.719C0.460528 19.8985 0 18.7853 0 17.625V2.3125C0 1.588 0.588 1 1.3125 1H7.4375C8.162 1 8.75 1.588 8.75 2.3125V7.06317M4.375 22.0008C4.94963 22.0008 5.51863 21.8876 6.04951 21.6677C6.58038 21.4477 7.06273 21.1254 7.469 20.719M4.375 22.0008C5.53532 22.0008 6.64853 21.5395 7.469 20.719M4.375 22.0008L19.6875 22C20.412 22 21 21.412 21 20.6875V14.5625C21 13.838 20.412 13.25 19.6875 13.25H14.9368M7.469 20.719L14.9368 13.25M7.469 20.719C8.28947 19.8985 8.75 18.7853 8.75 17.625V7.06317M14.9368 13.25L18.2957 9.89C18.809 9.379 18.809 8.54833 18.2957 8.035L13.965 3.70317C13.4517 3.191 12.621 3.191 12.11 3.70317L8.75 7.06317M4.375 17.625H4.38433V17.6343H4.375V17.625Z" stroke="#005653" stroke-width="2" stroke-linecap="round" stroke-linejoin="round"/>
</svg>
