<svg width="21" height="21" viewBox="0 0 21 21" fill="none" xmlns="http://www.w3.org/2000/svg">
<g filter="url(#filter0_d_104_5)">
<circle cx="10.5" cy="6.5" r="6.5" fill="#FFBD59"/>
<path d="M10.3875 3.05278C10.423 3.03729 10.4613 3.0293 10.5 3.0293C10.5387 3.0293 10.577 3.03729 10.6125 3.05278C11.9992 3.65893 13.3221 4.40199 14.5612 5.2709C14.6049 5.30153 14.639 5.34394 14.6594 5.39319C14.6799 5.44244 14.686 5.4965 14.6769 5.54906C14.6678 5.60162 14.644 5.65051 14.6081 5.69003C14.5723 5.72956 14.526 5.75808 14.4746 5.77228C13.1881 6.12759 11.9433 6.61938 10.7614 7.23928L10.7602 7.24003C10.7175 7.26253 10.6751 7.28465 10.6327 7.30753C10.5919 7.32932 10.5464 7.34073 10.5002 7.34073C10.4539 7.34073 10.4084 7.32932 10.3676 7.30753C9.86066 7.03699 9.34176 6.78948 8.81248 6.56578V6.48178C8.81248 6.43265 8.8376 6.38878 8.87698 6.36515C9.44299 6.02214 10.0253 5.70677 10.6219 5.42015C10.6891 5.38783 10.7407 5.33012 10.7654 5.25972C10.7901 5.18933 10.7858 5.11201 10.7535 5.04478C10.7212 4.97754 10.6634 4.92591 10.5931 4.90122C10.5227 4.87654 10.4453 4.88083 10.3781 4.91315C9.76527 5.20763 9.16707 5.53164 8.5856 5.88403C8.50288 5.93421 8.43151 6.00108 8.37605 6.08036C8.32059 6.15964 8.28225 6.24961 8.26348 6.34453C7.69393 6.12538 7.11398 5.93427 6.52573 5.7719C6.47431 5.75771 6.428 5.72918 6.39218 5.68966C6.35636 5.65013 6.33252 5.60124 6.32344 5.54868C6.31436 5.49612 6.32041 5.44206 6.34089 5.39281C6.36137 5.34356 6.39543 5.30115 6.4391 5.27053C7.67817 4.40177 9.00085 3.65884 10.3875 3.05278Z" fill="white"/>
<path d="M10.8975 7.80144C11.8186 7.30933 12.7804 6.89756 13.7723 6.57069C13.8225 7.10094 13.8548 7.63681 13.8679 8.17719C13.8694 8.23384 13.8537 8.2896 13.8229 8.33718C13.7921 8.38475 13.7477 8.42192 13.6954 8.44381C12.6324 8.88778 11.6146 9.43305 10.656 10.0721C10.6098 10.1029 10.5556 10.1193 10.5 10.1193C10.4445 10.1193 10.3902 10.1029 10.344 10.0721C9.38562 9.43307 8.36793 8.8878 7.30503 8.44381C7.25276 8.422 7.20829 8.38492 7.17744 8.33741C7.1466 8.2899 7.13081 8.23419 7.13216 8.17756C7.14528 7.63681 7.17753 7.10131 7.22778 6.57031C7.57316 6.68431 7.91403 6.80806 8.25003 6.94156V7.41781C8.16901 7.4645 8.1009 7.53064 8.05187 7.61027C8.00284 7.68989 7.97443 7.78049 7.96922 7.87385C7.96401 7.96722 7.98216 8.06041 8.02202 8.145C8.06189 8.22959 8.12221 8.3029 8.19753 8.35831C8.16378 8.50081 8.11428 8.64069 8.04866 8.77456C8.21816 8.85444 8.38653 8.93731 8.55341 9.02206C8.64747 8.83073 8.7169 8.62824 8.76003 8.41944C8.85487 8.37727 8.93618 8.30969 8.99499 8.22418C9.0538 8.13867 9.0878 8.03855 9.09323 7.93491C9.09867 7.83127 9.07532 7.72814 9.02578 7.63695C8.97624 7.54575 8.90244 7.47004 8.81253 7.41819V7.17631C9.25057 7.36767 9.68091 7.57621 10.1025 7.80144C10.2248 7.86676 10.3614 7.90094 10.5 7.90094C10.6387 7.90094 10.7752 7.86676 10.8975 7.80144Z" fill="white"/>
<path d="M7.67325 9.29852C7.83075 9.14139 7.95563 8.96477 8.04825 8.77539C8.21813 8.85564 8.3865 8.93852 8.55338 9.02364C8.43068 9.27286 8.26775 9.50016 8.07113 9.69639C8.01781 9.74607 7.9473 9.77312 7.87443 9.77183C7.80157 9.77055 7.73205 9.74103 7.68052 9.6895C7.62899 9.63797 7.59947 9.56845 7.59819 9.49559C7.5969 9.42272 7.62395 9.35221 7.67363 9.29889L7.67325 9.29852Z" fill="white"/>
</g>
<defs>
<filter id="filter0_d_104_5" x="0" y="0" width="21" height="21" filterUnits="userSpaceOnUse" color-interpolation-filters="sRGB">
<feFlood flood-opacity="0" result="BackgroundImageFix"/>
<feColorMatrix in="SourceAlpha" type="matrix" values="0 0 0 0 0 0 0 0 0 0 0 0 0 0 0 0 0 0 127 0" result="hardAlpha"/>
<feOffset dy="4"/>
<feGaussianBlur stdDeviation="2"/>
<feComposite in2="hardAlpha" operator="out"/>
<feColorMatrix type="matrix" values="0 0 0 0 0 0 0 0 0 0 0 0 0 0 0 0 0 0 0.25 0"/>
<feBlend mode="normal" in2="BackgroundImageFix" result="effect1_dropShadow_104_5"/>
<feBlend mode="normal" in="SourceGraphic" in2="effect1_dropShadow_104_5" result="shape"/>
</filter>
</defs>
</svg>
