<svg width="22" height="22" viewBox="0 0 22 22" fill="none" xmlns="http://www.w3.org/2000/svg">
<path fill-rule="evenodd" clip-rule="evenodd" d="M8.73572 2.26356C8.86446 2.39247 8.93678 2.56721 8.93678 2.74939C8.93678 2.93158 8.86446 3.10632 8.73572 3.23523L4.40905 7.56189H13.7499C15.3909 7.56189 16.9647 8.21379 18.1251 9.37417C19.2855 10.5346 19.9374 12.1084 19.9374 13.7494C19.9374 15.3904 19.2855 16.9642 18.1251 18.1246C16.9647 19.285 15.3909 19.9369 13.7499 19.9369H10.9999C10.8175 19.9369 10.6427 19.8645 10.5137 19.7355C10.3848 19.6066 10.3124 19.4317 10.3124 19.2494C10.3124 19.0671 10.3848 18.8922 10.5137 18.7633C10.6427 18.6343 10.8175 18.5619 10.9999 18.5619H13.7499C14.3819 18.5619 15.0077 18.4374 15.5915 18.1956C16.1754 17.9537 16.706 17.5992 17.1528 17.1523C17.5997 16.7055 17.9542 16.1749 18.1961 15.5911C18.4379 15.0072 18.5624 14.3814 18.5624 13.7494C18.5624 13.1174 18.4379 12.4916 18.1961 11.9077C17.9542 11.3239 17.5997 10.7933 17.1528 10.3464C16.706 9.89956 16.1754 9.54507 15.5915 9.30322C15.0077 9.06137 14.3819 8.93689 13.7499 8.93689H4.40905L8.73572 13.2636C8.80326 13.3265 8.85744 13.4024 8.89502 13.4867C8.93259 13.5711 8.9528 13.6621 8.95443 13.7544C8.95605 13.8467 8.93907 13.9384 8.9045 14.024C8.86992 14.1096 8.81845 14.1874 8.75317 14.2527C8.68788 14.318 8.61012 14.3694 8.52451 14.404C8.43891 14.4386 8.34722 14.4556 8.2549 14.4539C8.16259 14.4523 8.07156 14.4321 7.98722 14.3945C7.90289 14.357 7.82699 14.3028 7.76405 14.2352L2.26405 8.73523C2.1353 8.60632 2.06299 8.43158 2.06299 8.24939C2.06299 8.06721 2.1353 7.89247 2.26405 7.76356L7.76405 2.26356C7.89296 2.13482 8.06769 2.0625 8.24988 2.0625C8.43207 2.0625 8.60681 2.13482 8.73572 2.26356Z" fill="#01B4AF"/>
</svg>
