<svg width="19" height="19" viewBox="0 0 19 19" fill="none" xmlns="http://www.w3.org/2000/svg">
<path d="M6.82813 9.5C6.82813 9.57874 6.79685 9.65425 6.74117 9.70992C6.6855 9.7656 6.60999 9.79687 6.53125 9.79687C6.45251 9.79687 6.377 9.7656 6.32133 9.70992C6.26565 9.65425 6.23438 9.57874 6.23438 9.5C6.23438 9.42126 6.26565 9.34575 6.32133 9.29008C6.377 9.2344 6.45251 9.20312 6.53125 9.20312C6.60999 9.20312 6.6855 9.2344 6.74117 9.29008C6.79685 9.34575 6.82813 9.42126 6.82813 9.5ZM6.82813 9.5H6.53125M9.79688 9.5C9.79688 9.57874 9.7656 9.65425 9.70992 9.70992C9.65425 9.7656 9.57874 9.79687 9.5 9.79687C9.42126 9.79687 9.34575 9.7656 9.29008 9.70992C9.2344 9.65425 9.20313 9.57874 9.20313 9.5C9.20313 9.42126 9.2344 9.34575 9.29008 9.29008C9.34575 9.2344 9.42126 9.20312 9.5 9.20312C9.57874 9.20312 9.65425 9.2344 9.70992 9.29008C9.7656 9.34575 9.79688 9.42126 9.79688 9.5ZM9.79688 9.5H9.5M12.7656 9.5C12.7656 9.57874 12.7343 9.65425 12.6787 9.70992C12.623 9.7656 12.5475 9.79687 12.4688 9.79687C12.39 9.79687 12.3145 9.7656 12.2588 9.70992C12.2032 9.65425 12.1719 9.57874 12.1719 9.5C12.1719 9.42126 12.2032 9.34575 12.2588 9.29008C12.3145 9.2344 12.39 9.20312 12.4688 9.20312C12.5475 9.20312 12.623 9.2344 12.6787 9.29008C12.7343 9.34575 12.7656 9.42126 12.7656 9.5ZM12.7656 9.5H12.4688M16.625 9.5C16.625 13.1068 13.4346 16.0312 9.5 16.0312C8.81694 16.0321 8.13678 15.9424 7.47729 15.7645C6.54769 16.4183 5.41367 16.7153 4.28292 16.6012C4.1572 16.5891 4.03201 16.572 3.90767 16.5498C4.29785 16.0899 4.56433 15.5382 4.68192 14.9467C4.75317 14.5849 4.57663 14.2334 4.31221 13.9761C3.11125 12.8076 2.375 11.233 2.375 9.5C2.375 5.89317 5.56542 2.96875 9.5 2.96875C13.4346 2.96875 16.625 5.89317 16.625 9.5Z" stroke="#005351" stroke-width="1.5" stroke-linecap="round" stroke-linejoin="round"/>
</svg>
