<svg width="22" height="22" viewBox="0 0 22 22" fill="none" xmlns="http://www.w3.org/2000/svg">
<path d="M6.87317 13.9785H4.00767C3.06717 13.9785 2.22475 13.3423 2.12483 12.4064C2.08324 12.0152 2.06243 11.622 2.0625 11.2285C2.0625 8.61785 2.97183 6.21985 4.49075 4.33427C4.84642 3.89243 5.3955 3.66602 5.962 3.66602H9.64333C10.0866 3.66575 10.5271 3.73694 10.9478 3.87685L13.8023 4.83018C14.2229 4.9701 14.6634 5.04129 15.1067 5.04102H16.2928M6.87317 13.9785C7.43967 13.9785 7.78158 14.6422 7.53775 15.1537C7.09984 16.0753 6.8734 17.0831 6.875 18.1035C6.875 18.6505 7.0923 19.1751 7.47909 19.5619C7.86589 19.9487 8.39049 20.166 8.9375 20.166C9.11984 20.166 9.2947 20.0936 9.42364 19.9647C9.55257 19.8357 9.625 19.6609 9.625 19.4785V18.8983C9.625 18.373 9.72583 17.8533 9.92017 17.3656C10.1988 16.6689 10.7727 16.1464 11.4354 15.7935C12.4529 15.2506 13.3458 14.5013 14.0571 13.5935C14.5136 13.0123 15.1809 12.6035 15.9198 12.6035H16.2717M6.87317 13.9785H8.89167M16.2928 5.04102C16.302 5.08685 16.3185 5.13268 16.3396 5.17668C16.8832 6.27668 17.1875 7.51418 17.1875 8.82227C17.1875 10.1853 16.8575 11.4714 16.2717 12.6035M16.2928 5.04102C16.2232 4.70643 16.4606 4.35352 16.8199 4.35352H17.6523C18.4672 4.35352 19.2225 4.82835 19.4599 5.60752C19.7707 6.62502 19.9375 7.70393 19.9375 8.82227C19.9375 10.2458 19.6671 11.6053 19.1758 12.8538C18.8953 13.5633 18.1802 13.9785 17.4176 13.9785H16.4523C16.0197 13.9785 15.7694 13.4689 15.994 13.0985C16.0923 12.9368 16.1849 12.7717 16.2717 12.6035" stroke="#D47300" stroke-width="1.5" stroke-linecap="round" stroke-linejoin="round"/>
</svg>
