<svg width="30" height="30" viewBox="0 0 30 30" fill="none" xmlns="http://www.w3.org/2000/svg">
<path d="M2.8125 23.4375C9.48201 23.4321 16.1225 24.3153 22.5588 26.0637C23.4675 26.3112 24.375 25.6362 24.375 24.6937V23.4375M4.6875 5.625V6.5625C4.6875 6.81114 4.58873 7.0496 4.41291 7.22541C4.2371 7.40123 3.99864 7.5 3.75 7.5H2.8125M2.8125 7.5V7.03125C2.8125 6.255 3.4425 5.625 4.21875 5.625H25.3125M2.8125 7.5V18.75M25.3125 5.625V6.5625C25.3125 7.08 25.7325 7.5 26.25 7.5H27.1875M25.3125 5.625H25.7812C26.5575 5.625 27.1875 6.255 27.1875 7.03125V19.2188C27.1875 19.995 26.5575 20.625 25.7812 20.625H25.3125M2.8125 18.75V19.2188C2.8125 19.5917 2.96066 19.9494 3.22438 20.2131C3.4881 20.4768 3.84579 20.625 4.21875 20.625H4.6875M2.8125 18.75H3.75C3.99864 18.75 4.2371 18.8488 4.41291 19.0246C4.58873 19.2004 4.6875 19.4389 4.6875 19.6875V20.625M25.3125 20.625V19.6875C25.3125 19.4389 25.4113 19.2004 25.5871 19.0246C25.7629 18.8488 26.0014 18.75 26.25 18.75H27.1875M25.3125 20.625H4.6875M18.75 13.125C18.75 14.1196 18.3549 15.0734 17.6517 15.7767C16.9484 16.4799 15.9946 16.875 15 16.875C14.0054 16.875 13.0516 16.4799 12.3483 15.7767C11.6451 15.0734 11.25 14.1196 11.25 13.125C11.25 12.1304 11.6451 11.1766 12.3483 10.4733C13.0516 9.77009 14.0054 9.375 15 9.375C15.9946 9.375 16.9484 9.77009 17.6517 10.4733C18.3549 11.1766 18.75 12.1304 18.75 13.125ZM22.5 13.125H22.51V13.135H22.5V13.125ZM7.5 13.125H7.51V13.135H7.5V13.125Z" stroke="#005B58" stroke-width="1.5" stroke-linecap="round" stroke-linejoin="round"/>
</svg>
