<svg width="50" height="61" viewBox="0 0 50 61" fill="none" xmlns="http://www.w3.org/2000/svg">
<circle cx="25" cy="36" r="24.5" stroke="#ECECEC"/>
<path fill-rule="evenodd" clip-rule="evenodd" d="M38.9271 50.7854C40.9459 48.8885 42.5541 46.5977 43.6524 44.0546C44.7507 41.5115 45.3157 38.7701 45.3125 36C45.3125 24.7812 36.2188 15.6875 25 15.6875C13.7813 15.6875 4.68751 24.7812 4.68751 36C4.68431 38.7701 5.24932 41.5115 6.34762 44.0546C7.44592 46.5977 9.05416 48.8885 11.0729 50.7854C14.8374 54.3414 19.8216 56.3195 25 56.3125C30.1785 56.3195 35.1626 54.3414 38.9271 50.7854ZM12.8021 48.1083C14.2648 46.2784 16.1209 44.8015 18.2326 43.7873C20.3443 42.7731 22.6574 42.2477 25 42.25C27.3427 42.2477 29.6557 42.7731 31.7674 43.7873C33.8792 44.8015 35.7353 46.2784 37.1979 48.1083C35.6021 49.7202 33.7022 50.9992 31.6083 51.8711C29.5144 52.743 27.2682 53.1904 25 53.1875C22.7318 53.1904 20.4856 52.743 18.3917 51.8711C16.2978 50.9992 14.3979 49.7202 12.8021 48.1083ZM32.8125 29.75C32.8125 31.822 31.9894 33.8091 30.5243 35.2743C29.0592 36.7394 27.072 37.5625 25 37.5625C22.928 37.5625 20.9409 36.7394 19.4757 35.2743C18.0106 33.8091 17.1875 31.822 17.1875 29.75C17.1875 27.678 18.0106 25.6909 19.4757 24.2257C20.9409 22.7606 22.928 21.9375 25 21.9375C27.072 21.9375 29.0592 22.7606 30.5243 24.2257C31.9894 25.6909 32.8125 27.678 32.8125 29.75Z" fill="#E4E4E4"/>
</svg>
