<svg width="26" height="18" viewBox="0 0 26 18" fill="none" xmlns="http://www.w3.org/2000/svg">
<path d="M1.625 2.3125C1.625 1.588 2.213 1 2.9375 1H9.9375C10.662 1 11.25 1.588 11.25 2.3125V6.6875C11.25 7.412 10.662 8 9.9375 8H2.9375C2.5894 8 2.25556 7.86172 2.00942 7.61558C1.76328 7.36944 1.625 7.0356 1.625 6.6875V2.3125ZM15.625 4.0625C15.625 3.338 16.213 2.75 16.9375 2.75H23.0625C23.787 2.75 24.375 3.338 24.375 4.0625V13.6875C24.375 14.412 23.787 15 23.0625 15H16.9375C16.5894 15 16.2556 14.8617 16.0094 14.6156C15.7633 14.3694 15.625 14.0356 15.625 13.6875V4.0625ZM3.375 12.8125C3.375 12.088 3.963 11.5 4.6875 11.5H10.8125C11.537 11.5 12.125 12.088 12.125 12.8125V15.4375C12.125 16.162 11.537 16.75 10.8125 16.75H4.6875C4.3394 16.75 4.00556 16.6117 3.75942 16.3656C3.51328 16.1194 3.375 15.7856 3.375 15.4375V12.8125Z" stroke="#005653" stroke-width="2" stroke-linecap="round" stroke-linejoin="round"/>
</svg>
