<svg width="20" height="20" viewBox="0 0 20 20" fill="none" xmlns="http://www.w3.org/2000/svg">
<path d="M7.01953 9.53027C7.01953 9.63387 6.97838 9.73323 6.90512 9.80649C6.83186 9.87974 6.73251 9.9209 6.62891 9.9209C6.52531 9.9209 6.42595 9.87974 6.35269 9.80649C6.27944 9.73323 6.23828 9.63387 6.23828 9.53027C6.23828 9.42667 6.27944 9.32732 6.35269 9.25406C6.42595 9.1808 6.52531 9.13965 6.62891 9.13965C6.73251 9.13965 6.83186 9.1808 6.90512 9.25406C6.97838 9.32732 7.01953 9.42667 7.01953 9.53027ZM7.01953 9.53027H6.62891ZM10.9258 9.53027C10.9258 9.63387 10.8846 9.73323 10.8114 9.80649C10.7381 9.87974 10.6388 9.9209 10.5352 9.9209C10.4316 9.9209 10.3322 9.87974 10.2589 9.80649C10.1857 9.73323 10.1445 9.63387 10.1445 9.53027C10.1445 9.42667 10.1857 9.32732 10.2589 9.25406C10.3322 9.1808 10.4316 9.13965 10.5352 9.13965C10.6388 9.13965 10.7381 9.1808 10.8114 9.25406C10.8846 9.32732 10.9258 9.42667 10.9258 9.53027ZM10.9258 9.53027H10.5352ZM14.832 9.53027C14.832 9.63387 14.7909 9.73323 14.7176 9.80649C14.6444 9.87974 14.545 9.9209 14.4414 9.9209C14.3378 9.9209 14.2384 9.87974 14.1652 9.80649C14.0919 9.73323 14.0508 9.63387 14.0508 9.53027C14.0508 9.42667 14.0919 9.32732 14.1652 9.25406C14.2384 9.1808 14.3378 9.13965 14.4414 9.13965C14.545 9.13965 14.6444 9.1808 14.7176 9.25406C14.7909 9.32732 14.832 9.42667 14.832 9.53027ZM14.832 9.53027H14.4414ZM19.9102 9.53027C19.9102 14.2761 15.7122 18.124 10.5352 18.124C9.63639 18.1251 8.74144 18.0071 7.8737 17.773C6.65053 18.6332 5.15841 19.0241 3.67057 18.874C3.50515 18.8581 3.34043 18.8355 3.17682 18.8063C3.69023 18.2012 4.04085 17.4752 4.19557 16.6969C4.28932 16.2209 4.05703 15.7584 3.70911 15.4199C2.12891 13.8824 1.16016 11.8105 1.16016 9.53027C1.16016 4.78444 5.35807 0.936523 10.5352 0.936523C15.7122 0.936523 19.9102 4.78444 19.9102 9.53027Z" fill="#003B39"/>
<path d="M7.01953 9.53027C7.01953 9.63387 6.97838 9.73323 6.90512 9.80649C6.83186 9.87974 6.73251 9.9209 6.62891 9.9209C6.52531 9.9209 6.42595 9.87974 6.35269 9.80649C6.27944 9.73323 6.23828 9.63387 6.23828 9.53027C6.23828 9.42667 6.27944 9.32732 6.35269 9.25406C6.42595 9.1808 6.52531 9.13965 6.62891 9.13965C6.73251 9.13965 6.83186 9.1808 6.90512 9.25406C6.97838 9.32732 7.01953 9.42667 7.01953 9.53027ZM7.01953 9.53027H6.62891M10.9258 9.53027C10.9258 9.63387 10.8846 9.73323 10.8114 9.80649C10.7381 9.87974 10.6388 9.9209 10.5352 9.9209C10.4316 9.9209 10.3322 9.87974 10.2589 9.80649C10.1857 9.73323 10.1445 9.63387 10.1445 9.53027C10.1445 9.42667 10.1857 9.32732 10.2589 9.25406C10.3322 9.1808 10.4316 9.13965 10.5352 9.13965C10.6388 9.13965 10.7381 9.1808 10.8114 9.25406C10.8846 9.32732 10.9258 9.42667 10.9258 9.53027ZM10.9258 9.53027H10.5352M14.832 9.53027C14.832 9.63387 14.7909 9.73323 14.7176 9.80649C14.6444 9.87974 14.545 9.9209 14.4414 9.9209C14.3378 9.9209 14.2384 9.87974 14.1652 9.80649C14.0919 9.73323 14.0508 9.63387 14.0508 9.53027C14.0508 9.42667 14.0919 9.32732 14.1652 9.25406C14.2384 9.1808 14.3378 9.13965 14.4414 9.13965C14.545 9.13965 14.6444 9.1808 14.7176 9.25406C14.7909 9.32732 14.832 9.42667 14.832 9.53027ZM14.832 9.53027H14.4414M19.9102 9.53027C19.9102 14.2761 15.7122 18.124 10.5352 18.124C9.63639 18.1251 8.74144 18.0071 7.8737 17.773C6.65053 18.6332 5.15841 19.0241 3.67057 18.874C3.50515 18.8581 3.34043 18.8355 3.17682 18.8063C3.69023 18.2012 4.04085 17.4752 4.19557 16.6969C4.28932 16.2209 4.05703 15.7584 3.70911 15.4199C2.12891 13.8824 1.16016 11.8105 1.16016 9.53027C1.16016 4.78444 5.35807 0.936523 10.5352 0.936523C15.7122 0.936523 19.9102 4.78444 19.9102 9.53027Z" stroke="white" stroke-width="1.5" stroke-linecap="round" stroke-linejoin="round"/>
</svg>
