<svg width="21" height="21" viewBox="0 0 21 21" fill="none" xmlns="http://www.w3.org/2000/svg">
<path fill-rule="evenodd" clip-rule="evenodd" d="M10.0127 1.09375H10.9864C12.5944 1.09374 13.8681 1.09372 14.8649 1.22775C15.8907 1.36567 16.7211 1.65627 17.376 2.31108C18.0307 2.96591 18.3213 3.79624 18.4593 4.82211C18.5933 5.81891 18.5933 7.09262 18.5933 8.70064V14.875C18.5933 14.9467 18.5817 15.0158 18.5605 15.0805C18.4681 15.4646 18.1223 15.75 17.7097 15.75C16.9848 15.75 16.3972 16.3377 16.3972 17.0625C16.3972 17.7873 16.9848 18.375 17.7097 18.375C18.193 18.375 18.5847 18.7667 18.5847 19.25C18.5847 19.7172 18.2187 20.0988 17.7577 20.1237C17.7455 20.1244 17.7331 20.1247 17.7208 20.1249L17.7097 20.125H5.43318C3.74731 20.125 2.40234 18.7418 2.40234 17.0625C2.40234 17.0134 2.4035 16.9647 2.40577 16.9161V8.70062C2.40575 7.09259 2.40574 5.81892 2.53976 4.82211C2.67768 3.79624 2.96829 2.96591 3.6231 2.31108C4.27792 1.65627 5.10826 1.36567 6.13412 1.22775C7.13092 1.09372 8.40461 1.09374 10.0127 1.09375ZM5.43318 15.75H14.942C14.753 16.1478 14.6472 16.5928 14.6472 17.0625C14.6472 17.5322 14.753 17.9772 14.942 18.375H5.43318C4.73778 18.375 4.15234 17.7994 4.15234 17.0625C4.15234 16.3256 4.73778 15.75 5.43318 15.75ZM13.1245 6.78125C13.4869 6.78125 13.7808 6.48743 13.7808 6.125C13.7808 5.76257 13.4869 5.46875 13.1245 5.46875H7.87452C7.51208 5.46875 7.21827 5.76257 7.21827 6.125C7.21827 6.48743 7.51208 6.78125 7.87452 6.78125H13.1245ZM10.4995 10.2812C10.8619 10.2812 11.1558 9.98742 11.1558 9.625C11.1558 9.26258 10.8619 8.96875 10.4995 8.96875H7.87452C7.51208 8.96875 7.21827 9.26258 7.21827 9.625C7.21827 9.98742 7.51208 10.2812 7.87452 10.2812H10.4995Z" fill="#003B39"/>
</svg>
