<svg width="54" height="54" viewBox="0 0 54 54" fill="none" xmlns="http://www.w3.org/2000/svg">
<g filter="url(#filter0_d_102_8005)">
<rect x="2" y="1" width="50" height="50" rx="10" fill="#F7F7F7"/>
<path d="M19.7701 31.0372C17.8837 32.1955 12.9378 34.5607 15.9502 37.5203C17.4218 38.966 19.0607 40 21.1212 40H32.8788C34.9394 40 36.5783 38.966 38.0498 37.5203C41.0622 34.5607 36.1163 32.1955 34.2299 31.0372C29.8064 28.3209 24.1936 28.3209 19.7701 31.0372Z" stroke="#B5B5B5" stroke-width="2" stroke-linecap="round" stroke-linejoin="round"/>
<path d="M33 18C33 21.3137 30.3137 24 27 24C23.6863 24 21 21.3137 21 18C21 14.6863 23.6863 12 27 12C30.3137 12 33 14.6863 33 18Z" stroke="#B5B5B5" stroke-width="2"/>
</g>
<defs>
<filter id="filter0_d_102_8005" x="0" y="0" width="54" height="54" filterUnits="userSpaceOnUse" color-interpolation-filters="sRGB">
<feFlood flood-opacity="0" result="BackgroundImageFix"/>
<feColorMatrix in="SourceAlpha" type="matrix" values="0 0 0 0 0 0 0 0 0 0 0 0 0 0 0 0 0 0 127 0" result="hardAlpha"/>
<feOffset dy="1"/>
<feGaussianBlur stdDeviation="1"/>
<feComposite in2="hardAlpha" operator="out"/>
<feColorMatrix type="matrix" values="0 0 0 0 0 0 0 0 0 0 0 0 0 0 0 0 0 0 0.25 0"/>
<feBlend mode="normal" in2="BackgroundImageFix" result="effect1_dropShadow_102_8005"/>
<feBlend mode="normal" in="SourceGraphic" in2="effect1_dropShadow_102_8005" result="shape"/>
</filter>
</defs>
</svg>
