<svg width="25" height="25" viewBox="0 0 25 25" fill="none" xmlns="http://www.w3.org/2000/svg">
<path d="M8.98438 12.5C8.98438 12.6036 8.94322 12.703 8.86996 12.7762C8.79671 12.8495 8.69735 12.8906 8.59375 12.8906C8.49015 12.8906 8.39079 12.8495 8.31754 12.7762C8.24428 12.703 8.20312 12.6036 8.20312 12.5C8.20312 12.3964 8.24428 12.297 8.31754 12.2238C8.39079 12.1505 8.49015 12.1094 8.59375 12.1094C8.69735 12.1094 8.79671 12.1505 8.86996 12.2238C8.94322 12.297 8.98438 12.3964 8.98438 12.5ZM8.98438 12.5H8.59375H8.98438ZM12.8906 12.5C12.8906 12.6036 12.8495 12.703 12.7762 12.7762C12.703 12.8495 12.6036 12.8906 12.5 12.8906C12.3964 12.8906 12.297 12.8495 12.2238 12.7762C12.1505 12.703 12.1094 12.6036 12.1094 12.5C12.1094 12.3964 12.1505 12.297 12.2238 12.2238C12.297 12.1505 12.3964 12.1094 12.5 12.1094C12.6036 12.1094 12.703 12.1505 12.7762 12.2238C12.8495 12.297 12.8906 12.3964 12.8906 12.5ZM12.8906 12.5H12.5H12.8906ZM16.7969 12.5C16.7969 12.6036 16.7557 12.703 16.6825 12.7762C16.6092 12.8495 16.5098 12.8906 16.4062 12.8906C16.3026 12.8906 16.2033 12.8495 16.13 12.7762C16.0568 12.703 16.0156 12.6036 16.0156 12.5C16.0156 12.3964 16.0568 12.297 16.13 12.2238C16.2033 12.1505 16.3026 12.1094 16.4062 12.1094C16.5098 12.1094 16.6092 12.1505 16.6825 12.2238C16.7557 12.297 16.7969 12.3964 16.7969 12.5ZM16.7969 12.5H16.4062H16.7969ZM21.875 12.5C21.875 17.2458 17.6771 21.0938 12.5 21.0938C11.6012 21.0948 10.7063 20.9768 9.83854 20.7427C8.61538 21.603 7.12326 21.9938 5.63542 21.8437C5.46999 21.8278 5.30528 21.8052 5.14167 21.776C5.65507 21.171 6.0057 20.445 6.16042 19.6667C6.25417 19.1906 6.02187 18.7281 5.67396 18.3896C4.09375 16.8521 3.125 14.7802 3.125 12.5C3.125 7.75417 7.32292 3.90625 12.5 3.90625C17.6771 3.90625 21.875 7.75417 21.875 12.5Z" fill="#003B39"/>
<path d="M8.98437 12.5C8.98437 12.6036 8.94322 12.703 8.86996 12.7762C8.79671 12.8495 8.69735 12.8906 8.59375 12.8906C8.49015 12.8906 8.39079 12.8495 8.31754 12.7762C8.24428 12.703 8.20312 12.6036 8.20312 12.5C8.20312 12.3964 8.24428 12.297 8.31754 12.2238C8.39079 12.1505 8.49015 12.1094 8.59375 12.1094C8.69735 12.1094 8.79671 12.1505 8.86996 12.2238C8.94322 12.297 8.98437 12.3964 8.98437 12.5ZM8.98437 12.5H8.59375M12.8906 12.5C12.8906 12.6036 12.8495 12.703 12.7762 12.7762C12.703 12.8495 12.6036 12.8906 12.5 12.8906C12.3964 12.8906 12.297 12.8495 12.2238 12.7762C12.1505 12.703 12.1094 12.6036 12.1094 12.5C12.1094 12.3964 12.1505 12.297 12.2238 12.2238C12.297 12.1505 12.3964 12.1094 12.5 12.1094C12.6036 12.1094 12.703 12.1505 12.7762 12.2238C12.8495 12.297 12.8906 12.3964 12.8906 12.5ZM12.8906 12.5H12.5M16.7969 12.5C16.7969 12.6036 16.7557 12.703 16.6825 12.7762C16.6092 12.8495 16.5098 12.8906 16.4062 12.8906C16.3026 12.8906 16.2033 12.8495 16.13 12.7762C16.0568 12.703 16.0156 12.6036 16.0156 12.5C16.0156 12.3964 16.0568 12.297 16.13 12.2238C16.2033 12.1505 16.3026 12.1094 16.4062 12.1094C16.5098 12.1094 16.6092 12.1505 16.6825 12.2238C16.7557 12.297 16.7969 12.3964 16.7969 12.5ZM16.7969 12.5H16.4062M21.875 12.5C21.875 17.2458 17.6771 21.0937 12.5 21.0937C11.6012 21.0948 10.7063 20.9768 9.83854 20.7427C8.61538 21.603 7.12326 21.9938 5.63542 21.8437C5.46999 21.8278 5.30528 21.8052 5.14167 21.776C5.65507 21.171 6.0057 20.445 6.16042 19.6667C6.25417 19.1906 6.02187 18.7281 5.67396 18.3896C4.09375 16.8521 3.125 14.7802 3.125 12.5C3.125 7.75417 7.32292 3.90625 12.5 3.90625C17.6771 3.90625 21.875 7.75417 21.875 12.5Z" stroke="white" stroke-width="0" stroke-linecap="round" stroke-linejoin="round"/>
</svg>
