<svg width="26" height="26" viewBox="0 0 26 26" fill="none" xmlns="http://www.w3.org/2000/svg">
<path d="M5.61207 16.5704C4.24969 17.3689 0.677638 18.9995 2.85326 21.0398C3.91603 22.0365 5.09968 22.7493 6.58782 22.7493H15.0795C16.5676 22.7493 17.7513 22.0365 18.814 21.0398C20.9897 18.9995 17.4176 17.3689 16.0552 16.5704C12.8605 14.6979 8.80681 14.6979 5.61207 16.5704Z" fill="#003B39"/>
<path d="M15.1667 7.58333C15.1667 9.97657 13.2265 11.9167 10.8333 11.9167C8.4401 11.9167 6.5 9.97657 6.5 7.58333C6.5 5.1901 8.4401 3.25 10.8333 3.25C13.2265 3.25 15.1667 5.1901 15.1667 7.58333Z" fill="#003B39"/>
<path d="M21.2569 4.94676C21.4992 4.68435 21.6202 4.55316 21.7489 4.47663C22.0594 4.29198 22.4417 4.28624 22.7574 4.46149C22.8882 4.53412 23.013 4.66162 23.2626 4.91663C23.5122 5.17164 23.6371 5.29914 23.7082 5.43278C23.8797 5.75525 23.8742 6.14579 23.6934 6.46296C23.6184 6.59441 23.49 6.71811 23.2332 6.96551L20.177 9.90913C19.6902 10.378 19.4468 10.6124 19.1426 10.7312C18.8384 10.85 18.5041 10.8412 17.8352 10.8238L17.7442 10.8214C17.5407 10.8161 17.4388 10.8134 17.3797 10.7462C17.3205 10.6791 17.3286 10.5754 17.3447 10.368L17.3535 10.2554C17.399 9.67163 17.4217 9.37977 17.5357 9.11741C17.6497 8.85503 17.8463 8.64201 18.2395 8.21594L21.2569 4.94676Z" fill="#003B39"/>
</svg>
