<svg width="57" height="57" viewBox="0 0 57 57" fill="none" xmlns="http://www.w3.org/2000/svg">
<circle cx="28.5" cy="28.5" r="28.5" fill="#00B4AF"/>
<path d="M16.0996 24.9123C15.6412 28.4216 15.3681 31.9526 15.2813 35.4906C20.0793 37.4948 24.6733 39.9561 28.9996 42.8406C33.3265 39.956 37.9211 37.4947 42.7196 35.4906C42.6328 31.9526 42.3597 28.4216 41.9013 24.9123M41.9013 24.9123C43.3596 24.4223 44.838 23.9689 46.3313 23.5556C40.8923 19.7427 35.0863 16.4821 28.9996 13.8223C22.913 16.4826 17.107 19.7438 11.668 23.5573C13.1568 23.9683 14.634 24.4201 16.098 24.9123C20.5457 26.4076 24.8611 28.2707 28.9996 30.4823C33.1375 28.2707 37.4541 26.4076 41.9013 24.9123ZM20.2496 33.0006C20.5812 33.0006 20.8991 32.8689 21.1335 32.6345C21.3679 32.4001 21.4996 32.0821 21.4996 31.7506C21.4996 31.4191 21.3679 31.1011 21.1335 30.8667C20.8991 30.6323 20.5812 30.5006 20.2496 30.5006C19.9181 30.5006 19.6002 30.6323 19.3658 30.8667C19.1313 31.1011 18.9996 31.4191 18.9996 31.7506C18.9996 32.0821 19.1313 32.4001 19.3658 32.6345C19.6002 32.8689 19.9181 33.0006 20.2496 33.0006ZM20.2496 33.0006V26.8756C23.0775 25.1178 25.9985 23.5144 28.9996 22.0723M17.3213 41.3223C18.2513 40.3946 18.9887 39.2923 19.4912 38.0787C19.9938 36.8651 20.2515 35.5641 20.2496 34.2506V31.7506" stroke="white" stroke-width="2" stroke-linecap="round" stroke-linejoin="round"/>
</svg>
