<svg width="15" height="15" viewBox="0 0 15 15" fill="none" xmlns="http://www.w3.org/2000/svg">
<path d="M4.99854 13.75V11.875C4.99854 10.6965 4.99853 10.1073 5.36456 9.74113C5.73058 9.375 6.3197 9.375 7.49789 9.375C8.67609 9.375 9.26519 9.375 9.63122 9.74113C9.99725 10.1073 9.99725 10.6965 9.99725 11.875V13.75" stroke="#003B39" stroke-linejoin="round"/>
<path d="M6.24854 4.375H8.74789" stroke="#003B39" stroke-linecap="round" stroke-linejoin="round"/>
<path d="M1.87451 7.4115C1.87451 4.55124 1.87451 3.1211 2.741 2.21496C2.77301 2.18149 2.80576 2.14873 2.83923 2.11671C3.74513 1.25 5.17491 1.25 8.03443 1.25C8.71213 1.25 9.03861 1.25235 9.34934 1.36835C9.64858 1.48006 9.89926 1.68899 10.4006 2.10687L11.7727 3.25057C12.436 3.80351 12.7677 4.07997 12.9447 4.45791C13.1216 4.83586 13.1216 5.26771 13.1216 6.13141V8.125C13.1216 10.4686 13.1216 11.6404 12.525 12.4618C12.3323 12.7271 12.099 12.9604 11.8338 13.1532C11.0125 13.75 9.84103 13.75 7.49807 13.75C5.15509 13.75 3.98359 13.75 3.16235 13.1532C2.89712 12.9604 2.66388 12.7271 2.47118 12.4618C1.87451 11.6404 1.87451 10.4686 1.87451 8.125V7.4115Z" stroke="#003B39"/>
</svg>
