<svg width="50" height="50" viewBox="0 0 50 50" fill="none" xmlns="http://www.w3.org/2000/svg">
<rect width="50" height="50" rx="10" fill="#F7F7F7"/>
<path d="M24.997 8C19.9312 8 16.6466 11.3313 12.762 12.5456C11.1826 13.0393 10.3928 13.2862 10.0732 13.6342C9.75357 13.9822 9.65998 14.4907 9.4728 15.5077C7.46978 26.3909 11.8478 36.4526 22.2889 40.3689C23.4108 40.7896 23.9716 41 25.0025 41C26.0333 41 26.5943 40.7896 27.7159 40.3689C38.1564 36.4524 42.5303 26.3909 40.5267 15.5077C40.3394 14.4905 40.2458 13.9819 39.9261 13.6339C39.6065 13.2859 38.8167 13.0392 37.2373 12.5457C33.3511 11.3316 30.0629 8 24.997 8Z" stroke="#B5B5B5" stroke-width="2" stroke-linecap="round" stroke-linejoin="round"/>
<path d="M22.1488 22C20.2977 22 19.3722 23.2479 19.1665 24.0159C18.9608 24.7838 18.9608 27.5677 19.0842 28.7196C19.4956 30.1596 20.524 30.7547 21.5318 30.9467C22.4573 31.0235 26.3651 30.9947 27.4964 30.9947C29.1418 31.0235 30.3759 30.4475 30.8901 28.7196C30.9929 28.1437 31.0957 24.9758 30.8386 24.0159C30.2936 22.48 28.9361 22 27.9077 22H22.1488Z" stroke="#B5B5B5" stroke-width="2" stroke-linecap="round"/>
<path d="M21 22C21 21.8783 21.0187 21.1778 21.0218 20.2965C21.0248 19.4911 20.9454 18.7146 21.3768 18.004C22.9932 15.1372 27.6348 15.4292 28.7816 18.3496C28.9802 18.8304 28.9923 19.5926 28.9863 20.2965C28.9788 21.1959 29 22 29 22" stroke="#B5B5B5" stroke-width="2" stroke-linecap="round"/>
</svg>
