<?xml version="1.0" encoding="utf-8"?>
<!-- Generator: Adobe Illustrator 27.5.0, SVG Export Plug-In . SVG Version: 6.00 Build 0)  -->
<svg version="1.1" xmlns="http://www.w3.org/2000/svg" xmlns:xlink="http://www.w3.org/1999/xlink" x="0px" y="0px"
	 viewBox="0 0 500 500" style="enable-background:new 0 0 500 500;" xml:space="preserve">
<g id="BACKGROUND">
	<rect style="fill:#6963E5;" width="500" height="500"/>
</g>
<g id="OBJECTS">
	<g>
		<path style="fill:#5D55D9;" d="M375.275,76.617h-250.55c-26.527,0-48.108,21.581-48.108,48.108v250.55
			c0,26.527,21.581,48.108,48.108,48.108h250.55c26.527,0,48.108-21.581,48.108-48.108v-250.55
			C423.383,98.198,401.802,76.617,375.275,76.617z"/>
		<g>
			<g>
				<path style="fill:#FEFFFF;" d="M416.218,124.725v250.551c0,22.58-18.363,40.943-40.943,40.943h-250.55
					c-22.58,0-40.943-18.363-40.943-40.943V124.725c0-22.58,18.363-40.943,40.943-40.943h250.55
					C397.856,83.782,416.218,102.145,416.218,124.725z"/>
			</g>
			<g>
				<g>
					<path style="fill:#482AD1;" d="M349.234,329.841H150.766c-7.885,0-14.277-6.392-14.277-14.277V208.587
						c0-7.885,6.392-14.277,14.277-14.277h198.468c7.885,0,14.277,6.392,14.277,14.277v106.977
						C363.511,323.449,357.119,329.841,349.234,329.841z"/>
					<g>
						<path style="fill:#482AD1;" d="M340.683,194.311h-28.282v-8.386c0-2.22,1.8-4.02,4.019-4.02h20.243c2.22,0,4.02,1.8,4.02,4.02
							V194.311z"/>
						<rect x="312.401" y="189.444" style="fill:#3E24B5;" width="28.282" height="4.866"/>
					</g>
					<g>
						<path style="fill:#FEFFFF;" d="M339.203,229.131h-21.495c-2.931,0-5.306-2.376-5.306-5.306v-5.132
							c0-2.931,2.376-5.306,5.306-5.306h21.495c2.931,0,5.306,2.376,5.306,5.306v5.132
							C344.51,226.755,342.134,229.131,339.203,229.131z"/>
					</g>
					<g>
						<path style="fill:#482AD1;" d="M300.329,194.315h-100.66l2.913-5.472l8.879-16.651c2.01-3.773,5.934-6.127,10.212-6.127
							h56.661c4.268,0,8.191,2.354,10.202,6.127l8.879,16.651L300.329,194.315z"/>
						<polygon style="fill:#3E24B5;" points="300.329,194.315 199.669,194.315 202.582,188.843 297.415,188.843 						"/>
					</g>
					<g>
						<g>
							<path style="fill:#FEFFFF;" d="M350.846,258.495H149.155c-1.978,0-3.581,1.603-3.581,3.581c0,1.978,1.603,3.581,3.581,3.581
								h201.691c1.978,0,3.581-1.603,3.581-3.581C354.427,260.098,352.823,258.495,350.846,258.495L350.846,258.495z"/>
						</g>
						<g>
							
								<ellipse transform="matrix(0.2251 -0.9743 0.9743 0.2251 -61.6163 446.6815)" style="fill:#482AD1;" cx="250" cy="262.076" rx="48.69" ry="48.69"/>
							<g>
								<path style="fill:#FEFFFF;" d="M250,220.083c23.155,0,41.993,18.838,41.993,41.993c0,23.155-18.838,41.993-41.993,41.993
									c-23.155,0-41.993-18.838-41.993-41.993C208.007,238.921,226.845,220.083,250,220.083 M250,213.387
									c-26.891,0-48.689,21.799-48.689,48.69s21.799,48.69,48.689,48.69s48.69-21.799,48.69-48.69S276.891,213.387,250,213.387
									L250,213.387z"/>
							</g>
							<g>
								<circle style="fill:#FEFFFF;" cx="250" cy="262.076" r="28.365"/>
							</g>
						</g>
					</g>
					<path style="fill:#5834FF;" d="M150.45,198.307h14.804c2.167,0,3.923,1.756,3.923,3.923v0c0,2.167-1.756,3.923-3.923,3.923
						H150.45c-2.167,0-3.923-1.756-3.923-3.923v0C146.527,200.063,148.283,198.307,150.45,198.307z"/>
					<path style="fill:#5834FF;" d="M220.616,169.796h14.804c2.167,0,3.923,1.756,3.923,3.923l0,0c0,2.167-1.757,3.923-3.923,3.923
						h-14.804c-2.167,0-3.923-1.757-3.923-3.923l0,0C216.693,171.552,218.45,169.796,220.616,169.796z"/>
				</g>
				
					<text transform="matrix(1 0 0 1 200.2483 358.1624)" style="fill:#482AD1; font-family:'RubikRoman-ExtraBold'; font-size:22.5186px; letter-spacing:1;">NO PHOTO</text>
			</g>
			<g>
				<path style="fill:#C91C61;" d="M373.566,95.461H126.434c-17.073,0-30.973,13.9-30.973,30.973v247.132
					c0,17.073,13.9,30.973,30.973,30.973h247.132c17.073,0,30.973-13.9,30.973-30.973V126.434
					C404.539,109.361,390.639,95.461,373.566,95.461z M112.862,373.566V126.434c0-7.482,6.09-13.573,13.573-13.573h247.132
					c0.409,0,0.809,0.021,1.208,0.061L112.923,374.774C112.882,374.375,112.862,373.976,112.862,373.566z M387.139,373.566
					c0,7.482-6.09,13.573-13.573,13.573H126.434c-0.41,0-0.809-0.021-1.208-0.061l261.851-261.851
					c0.041,0.399,0.061,0.798,0.061,1.208V373.566z"/>
				<g style="opacity:0.2;">
					<path style="fill:#482AD1;" d="M360.009,119.003L119.003,360.009V126.434c0-4.098,3.334-7.431,7.431-7.431H360.009
						 M373.566,112.862H126.434c-7.482,0-13.573,6.09-13.573,13.573v247.132c0,0.409,0.02,0.809,0.061,1.208l261.851-261.851
						C374.375,112.882,373.975,112.862,373.566,112.862L373.566,112.862z"/>
				</g>
				<g style="opacity:0.2;">
					<path style="fill:#482AD1;" d="M380.997,139.992v233.574c0,4.098-3.334,7.431-7.431,7.431H139.992L380.997,139.992
						 M387.077,125.227L125.226,387.077c0.399,0.041,0.798,0.061,1.208,0.061h247.132c7.482,0,13.573-6.09,13.573-13.573V126.434
						C387.139,126.025,387.118,125.626,387.077,125.227L387.077,125.227z"/>
				</g>
				<path style="fill:#E01F6C;" d="M395.81,374.168L395.81,374.168c-4.822,0-8.731-3.909-8.731-8.731V134.564
					c0-4.822,3.909-8.731,8.731-8.731l0,0c4.822,0,8.731,3.909,8.731,8.731v230.874C404.541,370.259,400.632,374.168,395.81,374.168
					z"/>
				<path style="fill:#E01F6C;" d="M104.191,374.168L104.191,374.168c4.822,0,8.731-3.909,8.731-8.731V134.564
					c0-4.822-3.909-8.731-8.731-8.731l0,0c-4.822,0-8.731,3.909-8.731,8.731v230.874C95.46,370.259,99.369,374.168,104.191,374.168z
					"/>
				<path style="fill:#E01F6C;" d="M125.832,395.81L125.832,395.81c0-4.822,3.909-8.731,8.731-8.731h230.874
					c4.822,0,8.731,3.909,8.731,8.731v0c0,4.822-3.909,8.731-8.731,8.731H134.563C129.741,404.541,125.832,400.632,125.832,395.81z"
					/>
				<path style="fill:#E01F6C;" d="M125.832,104.191L125.832,104.191c0,4.822,3.909,8.731,8.731,8.731h230.874
					c4.822,0,8.731-3.909,8.731-8.731v0c0-4.822-3.909-8.731-8.731-8.731H134.563C129.741,95.46,125.832,99.369,125.832,104.191z"/>
				<path style="fill:#E01F6C;" d="M380.926,119.074L380.926,119.074c3.398,3.398,3.398,8.907,0,12.305L131.378,380.926
					c-3.398,3.398-8.907,3.398-12.305,0l0,0c-3.397-3.398-3.397-8.906,0-12.304l249.548-249.548
					C372.02,115.676,377.528,115.676,380.926,119.074z"/>
			</g>
		</g>
	</g>
</g>
</svg>
