<svg width="876" height="395" viewBox="0 0 876 395" fill="none" xmlns="http://www.w3.org/2000/svg">
<g filter="url(#filter0_bd_109_563)">
<path d="M50 250C50 139.543 139.543 50 250 50H806C817.046 50 826 58.9543 826 70V327C826 338.046 817.046 347 806 347H70C58.9543 347 50 338.046 50 327V250Z" fill="url(#paint0_linear_109_563)" fill-opacity="0.3" shape-rendering="crispEdges"/>
<path d="M50.5 250C50.5 139.819 139.819 50.5 250 50.5H806C816.77 50.5 825.5 59.2304 825.5 70V327C825.5 337.77 816.77 346.5 806 346.5H70C59.2304 346.5 50.5 337.77 50.5 327V250Z" stroke="#E5E5E5" shape-rendering="crispEdges"/>
</g>
<defs>
<filter id="filter0_bd_109_563" x="0" y="0" width="876" height="397" filterUnits="userSpaceOnUse" color-interpolation-filters="sRGB">
<feFlood flood-opacity="0" result="BackgroundImageFix"/>
<feGaussianBlur in="BackgroundImageFix" stdDeviation="2.5"/>
<feComposite in2="SourceAlpha" operator="in" result="effect1_backgroundBlur_109_563"/>
<feColorMatrix in="SourceAlpha" type="matrix" values="0 0 0 0 0 0 0 0 0 0 0 0 0 0 0 0 0 0 127 0" result="hardAlpha"/>
<feOffset/>
<feGaussianBlur stdDeviation="25"/>
<feComposite in2="hardAlpha" operator="out"/>
<feColorMatrix type="matrix" values="0 0 0 0 0 0 0 0 0 0.272396 0 0 0 0 0.265752 0 0 0 0.16 0"/>
<feBlend mode="normal" in2="effect1_backgroundBlur_109_563" result="effect2_dropShadow_109_563"/>
<feBlend mode="normal" in="SourceGraphic" in2="effect2_dropShadow_109_563" result="shape"/>
</filter>
<linearGradient id="paint0_linear_109_563" x1="610.444" y1="23.5" x2="69.601" y2="376.99" gradientUnits="userSpaceOnUse">
<stop stop-color="#00DFDA"/>
<stop offset="0.67" stop-color="#D68000" stop-opacity="0.8"/>
</linearGradient>
</defs>
</svg>
