<svg width="18" height="18" viewBox="0 0 18 18" fill="none" xmlns="http://www.w3.org/2000/svg">
<path d="M3.93762 4.23957C3.93762 3.59757 4.62537 3.19107 5.18787 3.50007L13.8429 8.26032C13.9753 8.33309 14.0858 8.44012 14.1628 8.57021C14.2398 8.7003 14.2804 8.84867 14.2804 8.99982C14.2804 9.15096 14.2398 9.29934 14.1628 9.42942C14.0858 9.55951 13.9753 9.66654 13.8429 9.73932L5.18787 14.4996C5.05939 14.5702 4.91471 14.6061 4.7681 14.6038C4.6215 14.6015 4.47802 14.5611 4.35182 14.4864C4.22562 14.4118 4.12105 14.3055 4.04842 14.1782C3.97579 14.0508 3.9376 13.9067 3.93762 13.7601V4.23957Z" stroke="#E6E6E6" stroke-opacity="0.75" stroke-width="1.5" stroke-linecap="round" stroke-linejoin="round"/>
</svg>
