<svg id="LOGO" xmlns="http://www.w3.org/2000/svg" width="272.01" height="79" viewBox="0 0 272.01 79">
  <g id="Component_14_1" data-name="Component 14 – 1" transform="translate(79.01)">
    <text id="FRONT"  transform="translate(96 52)" fill="#01cec9" font-size="55" font-family="ArialRoundedMTBold, Arial Rounded MT" letter-spacing="0.001em"><tspan x="-96.36" y="0">FRONT</tspan></text>
    <text id="DEVELOLPERS" transform="translate(96 74)" fill="#01cec9" font-size="25" font-family="ArialRoundedMTBold, Arial Rounded MT" letter-spacing="0.001em"><tspan x="-93.655" y="0">DEVELOLPERS</tspan></text>
  </g>
  <g id="Component_15_2" data-name="Component 15 – 2" transform="translate(0 8.838)">
    <g id="Path_25" data-name="Path 25" transform="translate(9.407 9.414)" fill="none">
      <path d="M26,0A26,26,0,1,1,0,26,26,26,0,0,1,26,0Z" stroke="none"/>
      <path d="M 26 7 C 15.52337265014648 7 7 15.52337265014648 7 26 C 7 36.47662734985352 15.52337265014648 45 26 45 C 36.47662734985352 45 45 36.47662734985352 45 26 C 45 15.52337265014648 36.47662734985352 7 26 7 M 26 0 C 40.35939788818359 0 52 11.64059829711914 52 26 C 52 40.35939788818359 40.35939788818359 52 26 52 C 11.64059829711914 52 0 40.35939788818359 0 26 C 0 11.64059829711914 11.64059829711914 0 26 0 Z" stroke="none" fill="#01cec9"/>
    </g>
    <path id="Path_17" data-name="Path 17" d="M0,0H14l2.213,10.434a45.769,45.769,0,0,0-9-1.211A56.434,56.434,0,0,0-2.427,10Z" transform="matrix(0.545, -0.839, 0.839, 0.545, 3.104, 22.218)" fill="#01cec9"/>
    <path id="Path_19" data-name="Path 19" d="M0,0H14l2.213,11.455a41.984,41.984,0,0,0-9-1.33,51.553,51.553,0,0,0-9.642.852Z" transform="translate(58.435 9.128) rotate(50)" fill="#01cec9"/>
    <path id="Path_20" data-name="Path 20" d="M0,0H14l2.213,11a43.58,43.58,0,0,0-9-1.277,53.614,53.614,0,0,0-9.642.818Z" transform="translate(58.55 61.792) rotate(150)" fill="#01cec9"/>
    <path id="Path_21" data-name="Path 21" d="M0,0H14l2.213,10.438a45.753,45.753,0,0,0-9-1.212A56.413,56.413,0,0,0-2.427,10Z" transform="matrix(-0.946, -0.326, 0.326, -0.946, 30.551, 69.371)" fill="#01cec9"/>
    <path id="Path_22" data-name="Path 22" d="M0,0H14l2.213,10.506a45.475,45.475,0,0,0-9-1.22,56.055,56.055,0,0,0-9.642.782Z" transform="matrix(-0.342, -0.94, 0.94, -0.342, 5.545, 53.245)" fill="#01cec9"/>
    <path id="Path_23" data-name="Path 23" d="M0,0H14l2.213,11a43.58,43.58,0,0,0-9-1.277,53.613,53.613,0,0,0-9.642.818Z" transform="translate(27.29 0.849) rotate(-3)" fill="#01cec9"/>
    <path id="Path_24" data-name="Path 24" d="M0,0H14l2.213,11.913a40.5,40.5,0,0,0-9-1.383,49.638,49.638,0,0,0-9.642.886Z" transform="translate(70.63 35.038) rotate(99)" fill="#01cec9"/>
    <text id="_" data-name="&lt;/&gt;" transform="translate(35.407 42.414)" fill="#01cec9" font-size="21" font-family="ArialRoundedMTBold, Arial Rounded MT" letter-spacing="0.001em"><tspan x="-15.212" y="0">&lt;/&gt;</tspan></text>
  </g>
</svg>
