<svg width="22" height="23" viewBox="0 0 22 23" fill="none" xmlns="http://www.w3.org/2000/svg">
<path fill-rule="evenodd" clip-rule="evenodd" d="M12.0476 8.7619C12.65 8.7619 13.1429 8.26905 13.1429 7.66667V5.47619H15.3333C15.9357 5.47619 16.4286 4.98333 16.4286 4.38095C16.4286 3.77857 15.9357 3.28571 15.3333 3.28571H13.1429V1.09524C13.1429 0.492857 12.65 0 12.0476 0C11.4452 0 10.9524 0.492857 10.9524 1.09524V3.28571H8.7619C8.15952 3.28571 7.66667 3.77857 7.66667 4.38095C7.66667 4.98333 8.15952 5.47619 8.7619 5.47619H10.9524V7.66667C10.9524 8.26905 11.4452 8.7619 12.0476 8.7619ZM6.57143 18.619C5.36667 18.619 4.3919 19.6048 4.3919 20.8095C4.3919 22.0143 5.36667 23 6.57143 23C7.77619 23 8.7619 22.0143 8.7619 20.8095C8.7619 19.6048 7.77619 18.619 6.57143 18.619ZM17.5238 18.619C16.319 18.619 15.3443 19.6048 15.3443 20.8095C15.3443 22.0143 16.319 23 17.5238 23C18.7286 23 19.7143 22.0143 19.7143 20.8095C19.7143 19.6048 18.7286 18.619 17.5238 18.619ZM7.77619 13.1429H15.9357C16.7571 13.1429 17.48 12.6938 17.8524 12.0148L21.5543 5.30095C21.85 4.77524 21.6529 4.10714 21.1271 3.81143C20.6014 3.52667 19.9333 3.71286 19.6486 4.23857L15.9357 10.9524H8.24714L3.87714 1.71952C3.7019 1.33619 3.30762 1.09524 2.89143 1.09524H1.09524C0.492857 1.09524 0 1.5881 0 2.19048C0 2.79286 0.492857 3.28571 1.09524 3.28571H2.19048L6.13333 11.5986L4.65476 14.271C3.85524 15.7386 4.90667 17.5238 6.57143 17.5238H18.619C19.2214 17.5238 19.7143 17.031 19.7143 16.4286C19.7143 15.8262 19.2214 15.3333 18.619 15.3333H6.57143L7.77619 13.1429Z" fill="#01CEC9"/>
</svg>
