<svg width="19" height="20" viewBox="0 0 19 20" fill="none" xmlns="http://www.w3.org/2000/svg">
<path d="M2.25316 1.11118C1.10519 1.55905 0.528151 2.87438 0.976019 4.02235L4.19301 12.2681L3.54768 11.9669L3.31359 11.8823C2.19537 11.3917 0.881065 11.9045 0.390494 13.0227C-0.100076 14.1409 0.412685 15.4552 1.53091 15.9458L1.53942 15.9676L9.45896 19.3877L9.5111 19.3925L9.54994 19.4276C10.7662 19.7669 12.15 19.7705 13.4998 19.2439L14.6995 18.7758C17.8653 17.5407 19.4202 13.9965 18.1851 10.8308L16.0575 5.37722C15.6096 4.22925 14.2943 3.6522 13.1463 4.10007C12.8491 4.21603 12.6056 4.40528 12.3939 4.6198C11.8106 3.80115 10.7174 3.43906 9.74395 3.81885C9.20951 4.02736 8.8006 4.42881 8.56061 4.90888C8.05892 4.71816 7.48619 4.69969 6.95174 4.9082C6.70633 5.00394 6.49477 5.14618 6.30475 5.31142L5.16434 2.38832C4.71647 1.24035 3.40113 0.66331 2.25316 1.11118ZM2.79784 2.50728C3.18504 2.35622 3.61717 2.5458 3.76823 2.933L6.76395 10.6116L8.16005 10.0669L7.0707 7.2747C6.91964 6.88749 7.10921 6.45537 7.49642 6.30431C7.88362 6.15324 8.31574 6.34282 8.46681 6.73002L9.55616 9.52223L10.9523 8.97756L9.86291 6.18534C9.71185 5.79814 9.90143 5.36602 10.2886 5.21495C10.6758 5.06389 11.108 5.25347 11.259 5.64067L12.3484 8.43288L13.8099 7.86267L13.2652 6.46657C13.1142 6.07937 13.3038 5.64724 13.691 5.49618C14.0782 5.34512 14.5103 5.53469 14.6613 5.92189L16.789 11.3754C17.7326 13.7941 16.5735 16.4361 14.1549 17.3797L12.9551 17.8478C11.9326 18.2467 10.9065 18.226 9.95814 17.9614L2.12957 14.5812C1.69744 14.3916 1.56553 14.0535 1.75511 13.6214C1.94468 13.1892 2.2828 13.0573 2.71493 13.2469L6.89974 15.0828L2.37212 3.47768C2.22106 3.09047 2.41064 2.65835 2.79784 2.50728Z" fill="#E80000"/>
</svg>
