<svg width="14" height="14" viewBox="0 0 14 14" fill="none" xmlns="http://www.w3.org/2000/svg">
<path d="M7.00006 3V7H10.0001M13.0001 7C13.0001 7.78793 12.8449 8.56815 12.5433 9.2961C12.2418 10.0241 11.7999 10.6855 11.2427 11.2426C10.6855 11.7998 10.0241 12.2417 9.29616 12.5433C8.56821 12.8448 7.78799 13 7.00006 13C6.21213 13 5.43191 12.8448 4.70396 12.5433C3.97601 12.2417 3.31457 11.7998 2.75742 11.2426C2.20027 10.6855 1.75831 10.0241 1.45678 9.2961C1.15526 8.56815 1.00006 7.78793 1.00006 7C1.00006 5.4087 1.6322 3.88258 2.75742 2.75736C3.88264 1.63214 5.40876 1 7.00006 1C8.59136 1 10.1175 1.63214 11.2427 2.75736C12.3679 3.88258 13.0001 5.4087 13.0001 7Z" stroke="#888888" stroke-width="1.4" stroke-linecap="round" stroke-linejoin="round"/>
</svg>
