<svg width="13" height="17" viewBox="0 0 13 17" fill="none" xmlns="http://www.w3.org/2000/svg">
<path d="M9.35378 4.25C9.35378 4.95448 9.08533 5.63011 8.6075 6.12825C8.12966 6.6264 7.48158 6.90625 6.80581 6.90625C6.13005 6.90625 5.48197 6.6264 5.00413 6.12825C4.5263 5.63011 4.25785 4.95448 4.25785 4.25C4.25785 3.54552 4.5263 2.86989 5.00413 2.37175C5.48197 1.8736 6.13005 1.59375 6.80581 1.59375C7.48158 1.59375 8.12966 1.8736 8.6075 2.37175C9.08533 2.86989 9.35378 3.54552 9.35378 4.25ZM1.71057 14.2503C1.73241 12.8565 2.27883 11.5275 3.23199 10.5499C4.18516 9.57237 5.4687 9.0245 6.80581 9.0245C8.14293 9.0245 9.42647 9.57237 10.3796 10.5499C11.3328 11.5275 11.8792 12.8565 11.9011 14.2503C10.3026 15.0144 8.56435 15.4087 6.80581 15.4063C4.98759 15.4063 3.26177 14.9926 1.71057 14.2503Z" stroke="#888888" stroke-width="1.5" stroke-linecap="round" stroke-linejoin="round"/>
</svg>
