<svg id="first" xmlns="http://www.w3.org/2000/svg" width="90.902" height="98.798" viewBox="0 0 90.902 98.798">
  <path id="Path_35" data-name="Path 35" d="M8.23,11.845A38.444,38.444,0,0,1,44.4.094,39.6,39.6,0,0,1,65.51,11.978L8.655,65.361A38.3,38.3,0,0,1-2.16,38.272C-1.984,30.885.514,20.08,8.23,11.845Z" transform="translate(22.262 1.349) rotate(18)" fill="#e48900"/>
  <path id="Path_36" data-name="Path 36" d="M8.23,11.845A38.444,38.444,0,0,1,44.4.094,39.42,39.42,0,0,1,65.5,12.048L8.525,65.308A38.283,38.283,0,0,1-2.16,38.272C-1.984,30.885.514,20.08,8.23,11.845Z" transform="matrix(-0.951, -0.309, 0.309, -0.951, 68.657, 97.449)" fill="#01cec9"/>
</svg>
