<svg width="18" height="19" viewBox="0 0 18 19" fill="none" xmlns="http://www.w3.org/2000/svg">
<path d="M11.8443 5.04472C11.8443 5.7911 11.5599 6.50692 11.0536 7.03469C10.5474 7.56246 9.86073 7.85896 9.14478 7.85896C8.42882 7.85896 7.74219 7.56246 7.23593 7.03469C6.72967 6.50692 6.44526 5.7911 6.44526 5.04472C6.44526 4.29833 6.72967 3.58252 7.23593 3.05474C7.74219 2.52697 8.42882 2.23047 9.14478 2.23047C9.86073 2.23047 10.5474 2.52697 11.0536 3.05474C11.5599 3.58252 11.8443 4.29833 11.8443 5.04472ZM3.74646 15.6398C3.76959 14.1631 4.34852 12.7551 5.35838 11.7194C6.36824 10.6837 7.72813 10.1032 9.14478 10.1032C10.5614 10.1032 11.9213 10.6837 12.9312 11.7194C13.941 12.7551 14.52 14.1631 14.5431 15.6398C12.8495 16.4494 11.0079 16.8672 9.14478 16.8646C7.2184 16.8646 5.38993 16.4263 3.74646 15.6398Z" stroke="#888888" stroke-width="1.5" stroke-linecap="round" stroke-linejoin="round"/>
</svg>
