<svg width="16" height="15" viewBox="0 0 16 15" fill="none" xmlns="http://www.w3.org/2000/svg">
<path d="M7.40882 1.01959C7.44056 0.942168 7.49462 0.875935 7.56411 0.829319C7.6336 0.782704 7.71539 0.757812 7.79907 0.757812C7.88275 0.757812 7.96453 0.782704 8.03402 0.829319C8.10351 0.875935 8.15757 0.942168 8.18931 1.01959L9.78405 4.85522C9.8139 4.927 9.86297 4.98914 9.92587 5.03482C9.98876 5.0805 10.063 5.10795 10.1405 5.11414L14.2816 5.44584C14.6561 5.47586 14.8077 5.9434 14.5225 6.1873L11.3675 8.89048C11.3086 8.94091 11.2647 9.00658 11.2406 9.08032C11.2165 9.15405 11.2131 9.23299 11.2309 9.30849L12.1953 13.3498C12.2147 13.4308 12.2096 13.5158 12.1807 13.594C12.1518 13.6722 12.1004 13.7401 12.0329 13.7891C11.9655 13.8381 11.885 13.866 11.8017 13.8692C11.7184 13.8725 11.636 13.8511 11.5649 13.8075L8.01895 11.6424C7.95274 11.602 7.87666 11.5806 7.79907 11.5806C7.72148 11.5806 7.64539 11.602 7.57918 11.6424L4.03323 13.8083C3.96213 13.8518 3.87972 13.8733 3.79642 13.87C3.71313 13.8667 3.63267 13.8388 3.56521 13.7898C3.49776 13.7408 3.44634 13.673 3.41744 13.5948C3.38854 13.5166 3.38346 13.4316 3.40284 13.3505L4.36719 9.30849C4.38507 9.23299 4.38178 9.15403 4.35769 9.08028C4.33359 9.00653 4.28961 8.94085 4.2306 8.89048L1.07564 6.1873C1.01211 6.13314 0.96608 6.06135 0.94338 5.98101C0.920681 5.90067 0.922334 5.81541 0.94813 5.73601C0.973926 5.65661 1.02271 5.58666 1.08829 5.535C1.15387 5.48335 1.23331 5.45232 1.31654 5.44584L5.45761 5.11414C5.5351 5.10795 5.60937 5.0805 5.67227 5.03482C5.73516 4.98914 5.78423 4.927 5.81408 4.85522L7.40882 1.01959Z" stroke="#FFC700" stroke-width="1.4" stroke-linecap="round" stroke-linejoin="round"/>
</svg>
