<svg width="24" height="24" viewBox="0 0 24 24" fill="none" xmlns="http://www.w3.org/2000/svg">
<path d="M1.54077 4.46096C1.54077 3.68654 1.84841 2.94384 2.396 2.39625C2.9436 1.84865 3.6863 1.54102 4.46072 1.54102H7.38066C8.15508 1.54102 8.89777 1.84865 9.44537 2.39625C9.99297 2.94384 10.3006 3.68654 10.3006 4.46096V7.3809C10.3006 8.15532 9.99297 8.89802 9.44537 9.44562C8.89777 9.99321 8.15508 10.3008 7.38066 10.3008H4.46072C3.6863 10.3008 2.9436 9.99321 2.396 9.44562C1.84841 8.89802 1.54077 8.15532 1.54077 7.3809V4.46096ZM1.54077 17.114C1.54077 16.3396 1.84841 15.5969 2.396 15.0493C2.9436 14.5017 3.6863 14.1941 4.46072 14.1941H7.38066C8.15508 14.1941 8.89777 14.5017 9.44537 15.0493C9.99297 15.5969 10.3006 16.3396 10.3006 17.114V20.034C10.3006 20.8084 9.99297 21.5511 9.44537 22.0987C8.89777 22.6463 8.15508 22.9539 7.38066 22.9539H4.46072C3.6863 22.9539 2.9436 22.6463 2.396 22.0987C1.84841 21.5511 1.54077 20.8084 1.54077 20.034V17.114ZM14.1939 4.46096C14.1939 3.68654 14.5015 2.94384 15.0491 2.39625C15.5967 1.84865 16.3394 1.54102 17.1138 1.54102H20.0337C20.8082 1.54102 21.5509 1.84865 22.0985 2.39625C22.6461 2.94384 22.9537 3.68654 22.9537 4.46096V7.3809C22.9537 8.15532 22.6461 8.89802 22.0985 9.44562C21.5509 9.99321 20.8082 10.3008 20.0337 10.3008H17.1138C16.3394 10.3008 15.5967 9.99321 15.0491 9.44562C14.5015 8.89802 14.1939 8.15532 14.1939 7.3809V4.46096ZM14.1939 17.114C14.1939 16.3396 14.5015 15.5969 15.0491 15.0493C15.5967 14.5017 16.3394 14.1941 17.1138 14.1941H20.0337C20.8082 14.1941 21.5509 14.5017 22.0985 15.0493C22.6461 15.5969 22.9537 16.3396 22.9537 17.114V20.034C22.9537 20.8084 22.6461 21.5511 22.0985 22.0987C21.5509 22.6463 20.8082 22.9539 20.0337 22.9539H17.1138C16.3394 22.9539 15.5967 22.6463 15.0491 22.0987C14.5015 21.5511 14.1939 20.8084 14.1939 20.034V17.114Z" stroke="#005B58" stroke-width="2" stroke-linecap="round" stroke-linejoin="round"/>
</svg>
