<svg width="22" height="22" viewBox="0 0 22 22" fill="none" xmlns="http://www.w3.org/2000/svg">
<path d="M6.08025 9.39648C6.81909 9.39648 7.4855 8.98765 7.942 8.40648C8.65357 7.49863 9.54682 6.74932 10.5646 6.20648C11.2273 5.85448 11.8021 5.33015 12.0798 4.6344C12.2749 4.14696 12.3751 3.62676 12.375 3.10173V2.52148C12.375 2.33915 12.4474 2.16428 12.5764 2.03535C12.7053 1.90642 12.8802 1.83398 13.0625 1.83398C13.6095 1.83398 14.1341 2.05128 14.5209 2.43808C14.9077 2.82487 15.125 3.34948 15.125 3.89648C15.125 4.95248 14.8867 5.95257 14.4623 6.84632C14.2184 7.35782 14.5603 8.02148 15.1268 8.02148M15.1268 8.02148H17.9923C18.9328 8.02148 19.7753 8.65765 19.8752 9.59357C19.9164 9.9804 19.9375 10.3727 19.9375 10.7715C19.9413 13.2798 19.0841 15.7134 17.5093 17.6657C17.1536 18.1076 16.6045 18.334 16.038 18.334H12.3567C11.9139 18.334 11.473 18.2625 11.0523 18.1232L8.19775 17.1698C7.7771 17.0299 7.33665 16.9587 6.89334 16.959H5.412M15.1268 8.02148H13.0625M5.412 16.959C5.48809 17.1469 5.57059 17.3302 5.6595 17.5108C5.84009 17.8775 5.588 18.334 5.18009 18.334H4.34775C3.53284 18.334 2.7775 17.8592 2.54009 17.08C2.22259 16.038 2.06164 14.9546 2.0625 13.8652C2.0625 12.4417 2.33292 11.0822 2.82425 9.83373C3.10475 9.12423 3.81975 8.70898 4.58334 8.70898H5.54859C5.98125 8.70898 6.2315 9.21865 6.00692 9.58898C5.22399 10.8778 4.81106 12.3573 4.81342 13.8652C4.81342 14.9597 5.02609 16.0038 5.41292 16.959H5.412Z" stroke="#AAAAAA" stroke-width="1.5" stroke-linecap="round" stroke-linejoin="round"/>
</svg>
