<svg width="21" height="21" viewBox="0 0 21 21" fill="none" xmlns="http://www.w3.org/2000/svg">
<path d="M6.31509 9.54375C6.10322 9.16252 5.77076 8.86244 5.36989 8.69061C4.96902 8.51878 4.52244 8.48492 4.10025 8.59436C3.67806 8.70379 3.30415 8.95032 3.03723 9.29525C2.77031 9.64018 2.62549 10.064 2.62549 10.5001C2.62549 10.9363 2.77031 11.3601 3.03723 11.705C3.30415 12.0499 3.67806 12.2965 4.10025 12.4059C4.52244 12.5153 4.96902 12.4815 5.36989 12.3096C5.77076 12.1378 6.10322 11.8377 6.31509 11.4565M6.31509 9.54375C6.47259 9.82725 6.56271 10.1527 6.56271 10.5001C6.56271 10.8475 6.47259 11.1739 6.31509 11.4565M6.31509 9.54375L14.6853 4.894M6.31509 11.4565L14.6853 16.1062M14.6853 4.894C14.8081 5.12512 14.9756 5.32946 15.1782 5.49506C15.3809 5.66067 15.6145 5.78422 15.8654 5.85849C16.1163 5.93277 16.3795 5.95627 16.6396 5.92763C16.8997 5.89899 17.1515 5.81879 17.3803 5.6917C17.609 5.56462 17.8101 5.39321 17.9719 5.18749C18.1336 4.98177 18.2527 4.74587 18.3222 4.49359C18.3917 4.2413 18.4102 3.97769 18.3766 3.71817C18.3431 3.45865 18.2581 3.20843 18.1267 2.98212C17.8678 2.53617 17.4442 2.20962 16.947 2.07266C16.4499 1.9357 15.9188 1.99928 15.4681 2.24971C15.0173 2.50015 14.6827 2.91745 14.5364 3.41192C14.39 3.90639 14.4435 4.43855 14.6853 4.894ZM14.6853 16.1062C14.5597 16.3323 14.4799 16.5809 14.4504 16.8379C14.4209 17.0948 14.4423 17.355 14.5133 17.6037C14.5844 17.8524 14.7037 18.0846 14.8645 18.2872C15.0253 18.4897 15.2244 18.6586 15.4505 18.7842C15.6766 18.9098 15.9252 18.9896 16.1821 19.0191C16.4391 19.0486 16.6993 19.0273 16.948 18.9562C17.1966 18.8852 17.4289 18.7658 17.6314 18.605C17.834 18.4442 18.0029 18.2451 18.1285 18.019C18.3821 17.5624 18.444 17.0238 18.3005 16.5216C18.157 16.0193 17.8199 15.5947 17.3633 15.3411C16.9067 15.0874 16.368 15.0255 15.8658 15.169C15.3636 15.3125 14.939 15.6497 14.6853 16.1062Z" stroke="#888888" stroke-width="1.5" stroke-linecap="round" stroke-linejoin="round"/>
</svg>
