<svg width="20" height="19" viewBox="0 0 20 19" fill="none" xmlns="http://www.w3.org/2000/svg">
<path d="M5.87317 11.9785H3.00767C2.06717 11.9785 1.22475 11.3423 1.12483 10.4064C1.08324 10.0152 1.06243 9.62198 1.0625 9.22852C1.0625 6.61785 1.97183 4.21985 3.49075 2.33427C3.84642 1.89243 4.3955 1.66602 4.962 1.66602H8.64333C9.08664 1.66575 9.5271 1.73694 9.94775 1.87685L12.8023 2.83018C13.2229 2.9701 13.6634 3.04129 14.1067 3.04102H15.2928M5.87317 11.9785C6.43967 11.9785 6.78158 12.6422 6.53775 13.1537C6.09984 14.0753 5.8734 15.0831 5.875 16.1035C5.875 16.6505 6.0923 17.1751 6.47909 17.5619C6.86589 17.9487 7.39049 18.166 7.9375 18.166C8.11984 18.166 8.2947 18.0936 8.42364 17.9647C8.55257 17.8357 8.625 17.6609 8.625 17.4785V16.8983C8.625 16.373 8.72583 15.8533 8.92017 15.3656C9.19883 14.6689 9.77267 14.1464 10.4354 13.7935C11.4529 13.2506 12.3458 12.5013 13.0571 11.5935C13.5136 11.0123 14.1809 10.6035 14.9198 10.6035H15.2717M5.87317 11.9785H7.89167M15.2928 3.04102C15.302 3.08685 15.3185 3.13268 15.3396 3.17668C15.8832 4.27668 16.1875 5.51418 16.1875 6.82227C16.1875 8.18535 15.8575 9.47143 15.2717 10.6035M15.2928 3.04102C15.2232 2.70643 15.4606 2.35352 15.8199 2.35352H16.6523C17.4672 2.35352 18.2225 2.82835 18.4599 3.60752C18.7707 4.62502 18.9375 5.70393 18.9375 6.82227C18.9375 8.24585 18.6671 9.60527 18.1758 10.8538C17.8953 11.5633 17.1802 11.9785 16.4176 11.9785H15.4523C15.0197 11.9785 14.7694 11.4689 14.994 11.0985C15.0923 10.9368 15.1849 10.7717 15.2717 10.6035" stroke="#AAAAAA" stroke-width="1.5" stroke-linecap="round" stroke-linejoin="round"/>
</svg>
