<svg width="23" height="15" viewBox="0 0 23 15" fill="none" xmlns="http://www.w3.org/2000/svg">
<g clip-path="url(#clip0_102_7303)">
<path fill-rule="evenodd" clip-rule="evenodd" d="M26.25 -7.5H-3.75V22.5H26.25V-7.5Z" stroke="white"/>
<path fill-rule="evenodd" clip-rule="evenodd" d="M21.25 15H16.25C15.5625 15 15 14.4375 15 13.75C15 13.0625 15.5625 12.5 16.25 12.5H21.25C21.9375 12.5 22.5 13.0625 22.5 13.75C22.5 14.4375 21.9375 15 21.25 15ZM22.5 1.25C22.5 1.9375 21.9375 2.5 21.25 2.5H1.25C0.5625 2.5 0 1.9375 0 1.25C0 0.5625 0.5625 0 1.25 0H21.25C21.9375 0 22.5 0.5625 22.5 1.25ZM21.25 8.75H8.75C8.0625 8.75 7.5 8.1875 7.5 7.5C7.5 6.8125 8.0625 6.25 8.75 6.25H21.25C21.9375 6.25 22.5 6.8125 22.5 7.5C22.5 8.1875 21.9375 8.75 21.25 8.75Z" fill="#005B58" stroke="white" stroke-width="0.5"/>
</g>
<defs>
<clipPath id="clip0_102_7303">
<rect width="22.5" height="15" fill="white" transform="matrix(-1 0 0 1 22.5 0)"/>
</clipPath>
</defs>
</svg>
