<svg width="15" height="15" viewBox="0 0 15 15" fill="none" xmlns="http://www.w3.org/2000/svg">
<path d="M4.21875 1.875V3.28125M10.7812 1.875V3.28125M1.875 11.7188V4.6875C1.875 4.31454 2.02316 3.95685 2.28688 3.69313C2.5506 3.42941 2.90829 3.28125 3.28125 3.28125H11.7188C12.0917 3.28125 12.4494 3.42941 12.7131 3.69313C12.9768 3.95685 13.125 4.31454 13.125 4.6875V11.7188M1.875 11.7188C1.875 12.0917 2.02316 12.4494 2.28688 12.7131C2.5506 12.9768 2.90829 13.125 3.28125 13.125H11.7188C12.0917 13.125 12.4494 12.9768 12.7131 12.7131C12.9768 12.4494 13.125 12.0917 13.125 11.7188M1.875 11.7188V7.03125C1.875 6.65829 2.02316 6.3006 2.28688 6.03688C2.5506 5.77316 2.90829 5.625 3.28125 5.625H11.7188C12.0917 5.625 12.4494 5.77316 12.7131 6.03688C12.9768 6.3006 13.125 6.65829 13.125 7.03125V11.7188" stroke="#01CEC9" stroke-width="1.5" stroke-linecap="round" stroke-linejoin="round"/>
</svg>
